<?xml version="1.0" encoding="UTF-8" standalone="no"?><svg xmlns="http://www.w3.org/2000/svg" xmlns:xlink="http://www.w3.org/1999/xlink" contentScriptType="application/ecmascript" contentStyleType="text/css" height="515.625px" preserveAspectRatio="none" style="width:589px;height:515px;background:#FFFFFF;" version="1.1" viewBox="0 0 589 515" width="589.5833px" zoomAndPan="magnify"><defs/><g><polygon fill="#4D4D4D" points="140.625,142.4764,140.625,142.5494,142.7083,142.3325,144.7917,142.5435,146.875,142.6152,148.9583,142.2287,151.0417,142.4764,150.9607,142.4764,150.5974,152.8236,150.6422,163.1707,150.9707,173.5179,150.3215,183.8651,151.6184,194.2122,150.3851,204.5594,150.8357,214.9066,151.4916,225.2537,150.9523,235.6009,151.1127,245.9481,151.0084,256.2952,151.2276,266.6424,151.2908,276.9896,151.6518,287.3368,151.7407,297.6839,151.7492,308.0311,151.3069,318.3783,151.5246,328.7254,151.7732,339.0726,150.2904,349.4198,151.7484,359.7669,150.7328,370.1141,151.5977,380.4613,150.526,390.8084,151.0417,401.1556,151.0417,401.1318,148.9583,401.4131,146.875,401.1387,144.7917,401.1922,142.7083,401.2732,140.625,401.1556,141.0586,401.1556,140.6209,390.8084,140.9242,380.4613,140.0287,370.1141,140.9212,359.7669,141.196,349.4198,141.0881,339.0726,141.2636,328.7254,140.1218,318.3783,139.9456,308.0311,139.9777,297.6839,140.5637,287.3368,140.4203,276.9896,141.3348,266.6424,140.443,256.2952,140.2677,245.9481,140.8628,235.6009,139.9304,225.2537,140.0842,214.9066,141.301,204.5594,141.0788,194.2122,141.3901,183.8651,140.2898,173.5179,140.9575,163.1707,141.24,152.8236,140.625,142.4764" style="stroke:#555555;stroke-width:1.0416666666666667;"/><polygon fill="#4D4D4D" points="331.25,232.8695,331.25,232.9424,333.3333,232.7256,335.4167,232.9366,337.5,233.0082,339.5833,232.6218,341.6667,232.8695,341.5857,232.8695,341.2224,243.3873,341.2672,253.9052,341.5957,264.4231,340.9465,274.941,342.2434,285.4589,341.0101,295.9768,341.4607,306.4946,342.1166,317.0125,341.5773,327.5304,341.7377,338.0483,341.6334,348.5662,341.6667,359.0841,341.6667,359.1461,339.5833,359.1671,337.5,359.2874,335.4167,359.3171,333.3333,359.3199,331.25,359.0841,331.5152,359.0841,331.7329,348.5662,331.9815,338.0483,330.4988,327.5304,331.9568,317.0125,330.9411,306.4946,331.8061,295.9768,330.7344,285.4589,331.1786,274.941,332.0225,264.4231,331.1992,253.9052,331.3597,243.3873,331.25,232.8695" style="stroke:#555555;stroke-width:1.0416666666666667;"/><polygon fill="#4D4D4D" points="528.125,274.941,528.125,275.014,530.2083,274.7971,532.2917,275.0081,534.375,275.0798,536.4583,274.6933,538.5417,274.941,538.5147,274.941,538.3936,283.3553,538.4085,291.7696,538.518,300.1839,538.3016,308.5982,538.5417,317.0125,538.5417,317.2048,536.4583,316.7937,534.375,316.9439,532.2917,317.1625,530.2083,316.9827,528.125,317.0125,528.1487,317.0125,528.1139,308.5982,528.187,300.1839,528.208,291.7696,528.3284,283.3553,528.125,274.941" style="stroke:#555555;stroke-width:1.0416666666666667;"/><path d="M27.0833,98.3215 L27.3753,98.3215 L26.5079,108.6952 L27.3518,119.0689 L27.6384,129.4426 L26.0925,139.8163 L26.9754,150.1899 L26.491,160.5636 L26.5507,170.9373 L26.9887,181.311 L26.1231,191.6846 L27.8523,202.0583 L26.2079,212.432 L26.8087,222.8057 L27.6833,233.1794 L26.9642,243.553 L27.1781,253.9267 L27.039,264.3004 L27.3313,274.6741 L27.4155,285.0478 L27.8968,295.4214 L28.0154,305.7951 L28.0267,316.1688 L27.437,326.5425 L27.7272,336.9162 L28.0587,347.2898 L26.0817,357.6635 L28.0257,368.0372 L26.6715,378.4109 L27.8247,388.7846 L26.3958,399.1582 L26.9882,409.5319 L27.0833,419.9056 " fill="none" style="stroke:#555555;stroke-width:2.0833333333333335;stroke-dasharray:5.0,5.0;"/><path d="M145.8333,98.3215 L146.1253,98.3215 L145.2579,108.6952 L146.1018,119.0689 L146.3884,129.4426 L144.8425,139.8163 L145.7254,150.1899 L145.241,160.5636 L145.3007,170.9373 L145.7387,181.311 L144.8731,191.6846 L146.6023,202.0583 L144.9579,212.432 L145.5587,222.8057 L146.4333,233.1794 L145.7142,243.553 L145.9281,253.9267 L145.789,264.3004 L146.0813,274.6741 L146.1655,285.0478 L146.6468,295.4214 L146.7654,305.7951 L146.7767,316.1688 L146.187,326.5425 L146.4772,336.9162 L146.8087,347.2898 L144.8317,357.6635 L146.7757,368.0372 L145.4215,378.4109 L146.5747,388.7846 L145.1458,399.1582 L145.7382,409.5319 L145.8333,419.9056 " fill="none" style="stroke:#555555;stroke-width:2.0833333333333335;stroke-dasharray:5.0,5.0;"/><path d="M336.4583,98.3215 L336.7503,98.3215 L335.8829,108.6952 L336.7268,119.0689 L337.0134,129.4426 L335.4675,139.8163 L336.3504,150.1899 L335.866,160.5636 L335.9257,170.9373 L336.3637,181.311 L335.4981,191.6846 L337.2273,202.0583 L335.5829,212.432 L336.1837,222.8057 L337.0583,233.1794 L336.3392,243.553 L336.5531,253.9267 L336.414,264.3004 L336.7063,274.6741 L336.7905,285.0478 L337.2718,295.4214 L337.3904,305.7951 L337.4017,316.1688 L336.812,326.5425 L337.1022,336.9162 L337.4337,347.2898 L335.4567,357.6635 L337.4007,368.0372 L336.0465,378.4109 L337.1997,388.7846 L335.7708,399.1582 L336.3632,409.5319 L336.4583,419.9056 " fill="none" style="stroke:#555555;stroke-width:2.0833333333333335;stroke-dasharray:5.0,5.0;"/><path d="M533.3333,98.3215 L533.6253,98.3215 L532.7579,108.6952 L533.6018,119.0689 L533.8884,129.4426 L532.3425,139.8163 L533.2254,150.1899 L532.741,160.5636 L532.8007,170.9373 L533.2387,181.311 L532.3731,191.6846 L534.1023,202.0583 L532.4579,212.432 L533.0587,222.8057 L533.9333,233.1794 L533.2142,243.553 L533.4281,253.9267 L533.289,264.3004 L533.5813,274.6741 L533.6655,285.0478 L534.1468,295.4214 L534.2654,305.7951 L534.2767,316.1688 L533.687,326.5425 L533.9772,336.9162 L534.3087,347.2898 L532.3317,357.6635 L534.2757,368.0372 L532.9215,378.4109 L534.0747,388.7846 L532.6458,399.1582 L533.2382,409.5319 L533.3333,419.9056 " fill="none" style="stroke:#555555;stroke-width:2.0833333333333335;stroke-dasharray:5.0,5.0;"/><text fill="#2E2E2E" font-family="Comic Sans MS, 楷体" font-size="12.5" lengthAdjust="spacing" textLength="28.125" x="10.4167" y="90.3666">User</text><polygon fill="#FFFFFF" points="35.9835,17.652,34.762,19.3211,33.3172,21.7657,31.2508,23.4132,29.0795,24.3141,27.3481,24.3923,25.1229,23.2656,23.0232,22.5295,21.4296,21.035,20.5936,19.3241,20.0979,17.9618,19.6122,16.1823,18.8239,14.6511,19.4296,13.1561,19.9604,11.5184,21.9521,10.2231,23.3534,8.5425,25.0878,7.9844,27.1497,7.5038,29.7939,7.7894,31.2421,8.4724,32.9259,8.782,34.9732,10.8795,35.6869,13.0939,35.997,14.6048,35.6458,17.0946" style="stroke:#333333;stroke-width:2.0833333333333335;"/><path d="M27.6042,23.9583 L27.7988,23.9583 L27.2205,29.5833 L27.7831,35.2083 L27.9742,40.8333 L26.9436,46.4583 L27.6042,52.0833 M14.0625,32.2917 L14.0625,32.2197 L19.4792,31.8968 L24.8958,31.9366 L30.3125,32.2286 L35.7292,31.6515 L41.1458,32.2917 M27.6042,52.0833 L27.9916,52.4191 L24.4548,54.8261 L22.0491,58.2134 L19.7814,61.7203 L16.7108,64.5313 L14.0625,67.7083 M27.6042,52.0833 L27.6519,52.1247 L30.2901,55.189 L33.1458,58.4416 L35.8965,61.6033 L38.8473,64.9385 L41.1458,67.7083 " fill="none" style="stroke:#333333;stroke-width:2.0833333333333335;"/><text fill="#2E2E2E" font-family="Comic Sans MS, 楷体" font-size="12.5" lengthAdjust="spacing" textLength="28.125" x="10.4167" y="438.3972">User</text><polygon fill="#FFFFFF" points="35.9835,458.7958,34.762,460.4649,33.3172,462.9095,31.2508,464.557,29.0795,465.4579,27.3481,465.5361,25.1229,464.4094,23.0232,463.6733,21.4296,462.1788,20.5936,460.4679,20.0979,459.1056,19.6122,457.3261,18.8239,455.7949,19.4296,454.2999,19.9604,452.6622,21.9521,451.3669,23.3534,449.6863,25.0878,449.1282,27.1497,448.6476,29.7939,448.9332,31.2421,449.6162,32.9259,449.9258,34.9732,452.0233,35.6869,454.2377,35.997,455.7486,35.6458,458.2384" style="stroke:#333333;stroke-width:2.0833333333333335;"/><path d="M27.6042,465.1021 L27.7988,465.1021 L27.2205,470.7271 L27.7831,476.3521 L27.9742,481.9771 L26.9436,487.6021 L27.6042,493.2271 M14.0625,473.4355 L14.0625,473.3635 L19.4792,473.0406 L24.8958,473.0804 L30.3125,473.3724 L35.7292,472.7953 L41.1458,473.4355 M27.6042,493.2271 L27.9916,493.5629 L24.4548,495.9699 L22.0491,499.3572 L19.7814,502.8641 L16.7108,505.6751 L14.0625,508.8521 M27.6042,493.2271 L27.6519,493.2685 L30.2901,496.3328 L33.1458,499.5854 L35.8965,502.7471 L38.8473,506.0823 L41.1458,508.8521 " fill="none" style="stroke:#333333;stroke-width:2.0833333333333335;"/><polygon fill="#FFFFFF" points="103.125,55.2083,103.125,55.4273,113.8021,54.7767,124.4792,55.4097,135.1563,55.6247,145.8333,54.4652,156.5104,55.1274,167.1875,54.7641,177.8646,54.8089,188.5417,55.2083,188.5326,55.1865,188.5971,55.0476,188.9099,55.508,188.8999,55.1892,189.1046,55.389,189.2782,55.5134,189.4168,55.5708,189.3117,55.6493,189.4222,55.8171,189.451,55.9511,189.5796,56.1264,189.5833,56.25,189.6664,56.25,189.7867,64.2476,189.8163,72.2453,189.8192,80.2429,189.6717,88.2406,189.5833,96.2382,189.732,96.2998,189.7476,96.4788,189.2299,96.437,189.6179,96.7703,189.2441,96.7881,189.2782,96.9748,189.3492,97.146,189.0651,96.877,188.9745,97.0748,188.9348,97.3957,188.6825,97.2032,188.5417,97.2799,188.5417,97.3896,177.8646,97.6326,167.1875,97.7134,156.5104,97.2758,145.8333,97.579,135.1563,96.6836,124.4792,97.5761,113.8021,97.8509,103.125,97.2799,103.1841,97.4225,103.0591,97.4155,102.7662,97.0029,102.5964,96.8876,102.4532,96.8364,102.3884,96.9748,102.3695,96.9669,102.2644,96.8013,102.485,96.7707,102.1493,96.5096,102.0343,96.3399,102.0833,96.2382,102.1626,96.2382,101.8518,88.2406,101.9031,80.2429,102.3087,72.2453,102.2346,64.2476,102.0833,56.25,102.319,56.3476,102.0411,56.0599,102.3078,55.9978,102.4558,55.8865,102.1759,55.598,102.3884,55.5134,102.3757,55.4827,102.5525,55.4928,102.7697,55.6005,102.8298,55.329,103.0392,55.4177,103.125,55.2083" style="stroke:#333333;stroke-width:1.5625;"/><text fill="#2E2E2E" font-family="Comic Sans MS, 楷体" font-size="12.5" lengthAdjust="spacing" textLength="62.5" x="114.5833" y="82.0333">第一个家伙</text><polygon fill="#FFFFFF" points="103.125,418.8639,103.125,419.0829,113.8021,418.4323,124.4792,419.0653,135.1563,419.2803,145.8333,418.1208,156.5104,418.783,167.1875,418.4197,177.8646,418.4645,188.5417,418.8639,188.5326,418.8421,188.5971,418.7032,188.9099,419.1636,188.8999,418.8448,189.1046,419.0446,189.2782,419.169,189.4168,419.2264,189.3117,419.3049,189.4222,419.4727,189.451,419.6067,189.5796,419.782,189.5833,419.9056,189.6664,419.9056,189.7867,427.9032,189.8163,435.9009,189.8192,443.8985,189.6717,451.8962,189.5833,459.8938,189.732,459.9554,189.7476,460.1344,189.2299,460.0926,189.6179,460.4259,189.2441,460.4437,189.2782,460.6304,189.3492,460.8016,189.0651,460.5326,188.9745,460.7304,188.9348,461.0513,188.6825,460.8588,188.5417,460.9355,188.5417,461.0452,177.8646,461.2882,167.1875,461.369,156.5104,460.9314,145.8333,461.2346,135.1563,460.3392,124.4792,461.2317,113.8021,461.5065,103.125,460.9355,103.1841,461.0781,103.0591,461.0711,102.7662,460.6585,102.5964,460.5432,102.4532,460.492,102.3884,460.6304,102.3695,460.6225,102.2644,460.4569,102.485,460.4263,102.1493,460.1652,102.0343,459.9955,102.0833,459.8938,102.1626,459.8938,101.8518,451.8962,101.9031,443.8985,102.3087,435.9009,102.2346,427.9032,102.0833,419.9056,102.319,420.0032,102.0411,419.7155,102.3078,419.6534,102.4558,419.5421,102.1759,419.2536,102.3884,419.169,102.3757,419.1383,102.5525,419.1484,102.7697,419.2561,102.8298,418.9846,103.0392,419.0733,103.125,418.8639" style="stroke:#333333;stroke-width:1.5625;"/><text fill="#2E2E2E" font-family="Comic Sans MS, 楷体" font-size="12.5" lengthAdjust="spacing" textLength="62.5" x="114.5833" y="445.6889">第一个家伙</text><polygon fill="#FFFFFF" points="284.375,55.2083,284.375,55.4273,294.7917,54.7767,305.2083,55.4097,315.625,55.6247,326.0417,54.4652,336.4583,55.1274,346.875,54.7641,357.2917,54.8089,367.7083,55.1373,378.125,54.4882,388.5417,55.2083,388.6152,55.3859,388.6052,55.0672,388.81,55.2669,389.041,55.53,389.1195,55.4249,389.2782,55.5134,389.3001,55.5225,389.329,55.6565,389.4575,55.8318,389.538,55.9871,389.7102,56.1805,389.5833,56.25,389.8163,56.25,389.8192,64.2476,389.6717,72.2453,389.7443,80.2429,389.8272,88.2406,389.5833,96.2382,389.352,96.1424,389.74,96.4757,389.3662,96.4934,389.5715,96.7511,389.1805,96.7617,389.2782,96.9748,389.2691,96.9528,389.2295,97.2737,388.9771,97.0812,388.8503,97.1916,388.734,97.3275,388.5417,97.2799,388.5417,97.7134,378.125,97.2758,367.7083,97.579,357.2917,96.6836,346.875,97.5761,336.4583,97.8509,326.0417,97.7429,315.625,97.9184,305.2083,96.7767,294.7917,96.6005,284.375,97.2799,284.2924,97.0805,284.2199,97.2,284.0543,97.0948,284.0236,97.3154,283.7625,96.9798,283.6384,96.9748,283.5284,96.9292,283.6506,96.8578,283.3025,96.5915,283.2888,96.4638,283.6025,96.4717,283.3333,96.2382,283.4846,96.2382,283.5884,88.2406,283.2216,80.2429,283.4442,72.2453,283.5383,64.2476,283.3333,56.25,283.1818,56.1872,283.3636,56.0899,283.4958,55.9721,283.7255,55.8947,283.5761,55.6602,283.6384,55.5134,283.6999,55.6618,283.7122,55.2748,283.8431,55.1741,284.1473,55.4919,284.1324,55.0394,284.375,55.2083" style="stroke:#333333;stroke-width:1.5625;"/><text fill="#2E2E2E" font-family="Comic Sans MS, 楷体" font-size="12.5" lengthAdjust="spacing" textLength="81.25" x="295.8333" y="82.0333">Second Class</text><polygon fill="#FFFFFF" points="284.375,418.8639,284.375,419.0829,294.7917,418.4323,305.2083,419.0653,315.625,419.2803,326.0417,418.1208,336.4583,418.783,346.875,418.4197,357.2917,418.4645,367.7083,418.7929,378.125,418.1438,388.5417,418.8639,388.6152,419.0415,388.6052,418.7228,388.81,418.9225,389.041,419.1856,389.1195,419.0805,389.2782,419.169,389.3001,419.1781,389.329,419.3121,389.4575,419.4874,389.538,419.6427,389.7102,419.8361,389.5833,419.9056,389.8163,419.9056,389.8192,427.9032,389.6717,435.9009,389.7443,443.8985,389.8272,451.8962,389.5833,459.8938,389.352,459.798,389.74,460.1313,389.3662,460.149,389.5715,460.4067,389.1805,460.4173,389.2782,460.6304,389.2691,460.6084,389.2295,460.9293,388.9771,460.7368,388.8503,460.8472,388.734,460.9831,388.5417,460.9355,388.5417,461.369,378.125,460.9314,367.7083,461.2346,357.2917,460.3392,346.875,461.2317,336.4583,461.5065,326.0417,461.3985,315.625,461.574,305.2083,460.4323,294.7917,460.2561,284.375,460.9355,284.2924,460.7361,284.2199,460.8556,284.0543,460.7504,284.0236,460.971,283.7625,460.6354,283.6384,460.6304,283.5284,460.5848,283.6506,460.5134,283.3025,460.2471,283.2888,460.1194,283.6025,460.1273,283.3333,459.8938,283.4846,459.8938,283.5884,451.8962,283.2216,443.8985,283.4442,435.9009,283.5383,427.9032,283.3333,419.9056,283.1818,419.8428,283.3636,419.7455,283.4958,419.6277,283.7255,419.5503,283.5761,419.3158,283.6384,419.169,283.6999,419.3174,283.7122,418.9304,283.8431,418.8297,284.1473,419.1475,284.1324,418.695,284.375,418.8639" style="stroke:#333333;stroke-width:1.5625;"/><text fill="#2E2E2E" font-family="Comic Sans MS, 楷体" font-size="12.5" lengthAdjust="spacing" textLength="81.25" x="295.8333" y="445.6889">Second Class</text><polygon fill="#FFFFFF" points="484.375,55.2083,484.375,55.4273,495.2546,54.7767,506.1343,55.4097,517.0139,55.6247,527.8935,54.4652,538.7731,55.1274,549.6528,54.7641,560.5324,54.8089,571.412,55.1373,582.2917,55.2083,582.1998,54.9865,582.5125,55.447,582.5025,55.1282,582.7073,55.3279,582.9383,55.591,583.0282,55.5134,583.0007,55.502,583.1111,55.6698,583.14,55.8038,583.2686,55.9791,583.349,56.1345,583.3333,56.25,583.5367,56.25,583.5663,64.2476,583.5692,72.2453,583.4217,80.2429,583.4943,88.2406,583.3333,96.2382,583.5586,96.3315,583.041,96.2897,583.429,96.623,583.0552,96.6407,583.2605,96.8984,583.0282,96.9748,582.9625,96.816,582.8718,97.0138,582.8322,97.3347,582.5798,97.1422,582.453,97.2526,582.2917,97.2799,582.2917,97.6326,571.412,97.7134,560.5324,97.2758,549.6528,97.579,538.7731,96.6836,527.8935,97.5761,517.0139,97.8509,506.1343,97.7429,495.2546,97.9184,484.375,97.2799,484.3108,97.1249,484.141,97.0096,483.9978,96.9585,483.9252,97.0779,483.7596,96.9727,483.6384,96.9748,483.857,97.0653,483.5214,96.8042,483.4063,96.6346,483.5286,96.5632,483.1804,96.2969,483.3333,96.2382,483.1531,96.2382,483.5587,88.2406,483.4846,80.2429,483.5884,72.2453,483.2216,64.2476,483.3333,56.25,483.4357,56.2924,483.5838,56.1811,483.3038,55.8926,483.4856,55.7953,483.6178,55.6775,483.6384,55.5134,483.725,55.7225,483.7852,55.4511,483.9945,55.5398,484.0068,55.1527,484.1377,55.0521,484.375,55.2083" style="stroke:#333333;stroke-width:1.5625;"/><text fill="#2E2E2E" font-family="Comic Sans MS, 楷体" font-size="12.5" lengthAdjust="spacing" textLength="75" x="495.8333" y="82.0333">最后一个家伙</text><polygon fill="#FFFFFF" points="484.375,418.8639,484.375,419.0829,495.2546,418.4323,506.1343,419.0653,517.0139,419.2803,527.8935,418.1208,538.7731,418.783,549.6528,418.4197,560.5324,418.4645,571.412,418.7929,582.2917,418.8639,582.1998,418.6421,582.5125,419.1026,582.5025,418.7838,582.7073,418.9835,582.9383,419.2466,583.0282,419.169,583.0007,419.1576,583.1111,419.3254,583.14,419.4594,583.2686,419.6347,583.349,419.7901,583.3333,419.9056,583.5367,419.9056,583.5663,427.9032,583.5692,435.9009,583.4217,443.8985,583.4943,451.8962,583.3333,459.8938,583.5586,459.9871,583.041,459.9453,583.429,460.2786,583.0552,460.2963,583.2605,460.554,583.0282,460.6304,582.9625,460.4716,582.8718,460.6694,582.8322,460.9903,582.5798,460.7978,582.453,460.9082,582.2917,460.9355,582.2917,461.2882,571.412,461.369,560.5324,460.9314,549.6528,461.2346,538.7731,460.3392,527.8935,461.2317,517.0139,461.5065,506.1343,461.3985,495.2546,461.574,484.375,460.9355,484.3108,460.7805,484.141,460.6652,483.9978,460.6141,483.9252,460.7335,483.7596,460.6283,483.6384,460.6304,483.857,460.7209,483.5214,460.4598,483.4063,460.2902,483.5286,460.2188,483.1804,459.9525,483.3333,459.8938,483.1531,459.8938,483.5587,451.8962,483.4846,443.8985,483.5884,435.9009,483.2216,427.9032,483.3333,419.9056,483.4357,419.948,483.5838,419.8367,483.3038,419.5482,483.4856,419.4509,483.6178,419.3331,483.6384,419.169,483.725,419.3781,483.7852,419.1067,483.9945,419.1954,484.0068,418.8083,484.1377,418.7077,484.375,418.8639" style="stroke:#333333;stroke-width:1.5625;"/><text fill="#2E2E2E" font-family="Comic Sans MS, 楷体" font-size="12.5" lengthAdjust="spacing" textLength="75" x="495.8333" y="445.6889">最后一个家伙</text><polygon fill="#4D4D4D" points="140.625,142.4764,140.625,142.5494,142.7083,142.3325,144.7917,142.5435,146.875,142.6152,148.9583,142.2287,151.0417,142.4764,150.9607,142.4764,150.5974,152.8236,150.6422,163.1707,150.9707,173.5179,150.3215,183.8651,151.6184,194.2122,150.3851,204.5594,150.8357,214.9066,151.4916,225.2537,150.9523,235.6009,151.1127,245.9481,151.0084,256.2952,151.2276,266.6424,151.2908,276.9896,151.6518,287.3368,151.7407,297.6839,151.7492,308.0311,151.3069,318.3783,151.5246,328.7254,151.7732,339.0726,150.2904,349.4198,151.7484,359.7669,150.7328,370.1141,151.5977,380.4613,150.526,390.8084,151.0417,401.1556,151.0417,401.1318,148.9583,401.4131,146.875,401.1387,144.7917,401.1922,142.7083,401.2732,140.625,401.1556,141.0586,401.1556,140.6209,390.8084,140.9242,380.4613,140.0287,370.1141,140.9212,359.7669,141.196,349.4198,141.0881,339.0726,141.2636,328.7254,140.1218,318.3783,139.9456,308.0311,139.9777,297.6839,140.5637,287.3368,140.4203,276.9896,141.3348,266.6424,140.443,256.2952,140.2677,245.9481,140.8628,235.6009,139.9304,225.2537,140.0842,214.9066,141.301,204.5594,141.0788,194.2122,141.3901,183.8651,140.2898,173.5179,140.9575,163.1707,141.24,152.8236,140.625,142.4764" style="stroke:#555555;stroke-width:1.0416666666666667;"/><polygon fill="#4D4D4D" points="331.25,232.8695,331.25,232.9424,333.3333,232.7256,335.4167,232.9366,337.5,233.0082,339.5833,232.6218,341.6667,232.8695,341.5857,232.8695,341.2224,243.3873,341.2672,253.9052,341.5957,264.4231,340.9465,274.941,342.2434,285.4589,341.0101,295.9768,341.4607,306.4946,342.1166,317.0125,341.5773,327.5304,341.7377,338.0483,341.6334,348.5662,341.6667,359.0841,341.6667,359.1461,339.5833,359.1671,337.5,359.2874,335.4167,359.3171,333.3333,359.3199,331.25,359.0841,331.5152,359.0841,331.7329,348.5662,331.9815,338.0483,330.4988,327.5304,331.9568,317.0125,330.9411,306.4946,331.8061,295.9768,330.7344,285.4589,331.1786,274.941,332.0225,264.4231,331.1992,253.9052,331.3597,243.3873,331.25,232.8695" style="stroke:#555555;stroke-width:1.0416666666666667;"/><polygon fill="#4D4D4D" points="528.125,274.941,528.125,275.014,530.2083,274.7971,532.2917,275.0081,534.375,275.0798,536.4583,274.6933,538.5417,274.941,538.5147,274.941,538.3936,283.3553,538.4085,291.7696,538.518,300.1839,538.3016,308.5982,538.5417,317.0125,538.5417,317.2048,536.4583,316.7937,534.375,316.9439,532.2917,317.1625,530.2083,316.9827,528.125,317.0125,528.1487,317.0125,528.1139,308.5982,528.187,300.1839,528.208,291.7696,528.3284,283.3553,528.125,274.941" style="stroke:#555555;stroke-width:1.0416666666666667;"/><polygon fill="#333333" points="128.125,138.3097,128.1521,138.3775,130.1549,139.0095,132.3166,140.0387,134.4265,140.9386,136.3663,141.4131,138.5417,142.4764,138.5316,142.4513,136.4033,143.1722,134.3255,144.0194,132.2829,144.9544,130.1192,145.5868,128.125,146.6431,128.2609,146.779,128.8036,145.655,129.7431,144.9278,130.7311,144.2491,131.4373,143.2887,132.2917,142.4764,132.3084,142.4932,131.4505,141.6352,130.6688,140.8536,129.8504,140.0351,129.1021,139.2869,128.125,138.3097" style="stroke:#333333;stroke-width:1.0416666666666667;"/><path d="M27.6042,142.4764 L27.6042,142.7683 L38.2813,141.901 L48.9583,142.7449 L59.6354,143.0315 L70.3125,141.4856 L80.9896,142.3685 L91.6667,141.884 L102.3438,141.9438 L113.0208,142.3817 L123.6979,141.5162 L134.375,142.4764 " fill="none" style="stroke:#333333;stroke-width:3.125;"/><text fill="#2E2E2E" font-family="Comic Sans MS, 楷体" font-size="12.5" lengthAdjust="spacing" textLength="25" x="40.1042" y="132.4382">干活</text><path d="M75,157.0597 L75,192.4764 A1.0417,1.0417 0 0 0 76.0417,193.5181 L215.625,193.5181 A1.0417,1.0417 0 0 0 216.6667,192.4764 L216.6667,166.4347 L206.25,156.0181 L76.0417,156.0181 A1.0417,1.0417 0 0 0 75,157.0597 " fill="#17A2B8" style="stroke:#1592A6;stroke-width:1.0416666666666667;"/><path d="M206.25,156.0181 L206.25,165.9139 A0.5208,0.5208 0 0 0 206.7708,166.4347 L216.6667,166.4347 L206.25,156.0181 " fill="#17A2B8" style="stroke:#1592A6;stroke-width:1.0416666666666667;"/><text fill="#FFFFFF" font-family="Comic Sans MS, 楷体" font-size="12.5" lengthAdjust="spacing" textLength="100" x="95.8333" y="180.7597">这是一条注释说明</text><polygon fill="#333333" points="318.75,228.7028,318.7771,228.7706,320.7799,229.4026,322.9416,230.4318,325.0515,231.3317,326.9913,231.8061,329.1667,232.8695,329.1566,232.8444,327.0283,233.5653,324.9505,234.4125,322.9079,235.3475,320.7442,235.9799,318.75,237.0361,318.8859,237.1721,319.4286,236.0481,320.3681,235.3209,321.3561,234.6422,322.0623,233.6817,322.9167,232.8695,322.9334,232.8862,322.0755,232.0283,321.2938,231.2466,320.4754,230.4282,319.7271,229.6799,318.75,228.7028" style="stroke:#333333;stroke-width:1.0416666666666667;"/><path d="M151.0417,232.8695 L151.0417,233.1614 L161.2745,232.294 L171.5074,233.1379 L181.7402,233.4246 L191.973,231.8786 L202.2059,232.7615 L212.4387,232.2771 L222.6716,232.3368 L232.9044,232.7748 L243.1373,231.9092 L253.3701,233.6384 L263.6029,231.9941 L273.8358,232.5948 L284.0686,233.4694 L294.3015,232.7503 L304.5343,232.9642 L314.7672,232.8251 L325,232.8695 " fill="none" style="stroke:#333333;stroke-width:3.125;"/><text fill="#2E2E2E" font-family="Comic Sans MS, 楷体" font-size="12.5" lengthAdjust="spacing" textLength="90.625" x="163.5417" y="222.8312">Create Request</text><polygon fill="#333333" points="515.625,270.7743,515.6521,270.8421,517.6549,271.4741,519.8166,272.5033,521.9265,273.4032,523.8663,273.8777,526.0417,274.941,526.0316,274.9159,523.9033,275.6368,521.8255,276.484,519.7829,277.419,517.6192,278.0514,515.625,279.1077,515.7609,279.2436,516.3036,278.1196,517.2431,277.3924,518.2311,276.7137,518.9373,275.7533,519.7917,274.941,519.8084,274.9578,518.9505,274.0998,518.1688,273.3182,517.3504,272.4997,516.6021,271.7515,515.625,270.7743" style="stroke:#333333;stroke-width:1.0416666666666667;"/><path d="M341.6667,274.941 L341.6667,275.2329 L352.2672,274.3656 L362.8676,275.2095 L373.4681,275.4961 L384.0686,273.9502 L394.6691,274.8331 L405.2696,274.3486 L415.8701,274.4084 L426.4706,274.8463 L437.0711,273.9808 L447.6716,275.7099 L458.2721,274.0656 L468.8725,274.6663 L479.473,275.5409 L490.0735,274.8219 L500.674,275.0358 L511.2745,274.8966 L521.875,274.941 " fill="none" style="stroke:#333333;stroke-width:3.125;"/><text fill="#2E2E2E" font-family="Comic Sans MS, 楷体" font-size="12.5" lengthAdjust="spacing" textLength="48.9583" x="354.1667" y="264.9028">Do Work</text><polygon fill="#333333" points="353.125,312.8459,353.1521,312.9136,350.9882,313.5456,348.9833,314.5748,346.9265,315.4747,344.6997,315.9492,342.7083,317.0125,342.6983,316.9875,344.7367,317.7084,346.8255,318.5556,348.9495,319.4906,350.9525,320.123,353.125,321.1792,353.2609,321.3151,352.1369,320.1911,351.4098,319.464,350.7311,318.7853,349.7706,317.8248,348.9583,317.0125,348.9751,317.0293,349.7838,316.1714,350.6688,315.3897,351.517,314.5712,352.4355,313.823,353.125,312.8459" style="stroke:#333333;stroke-width:1.0416666666666667;"/><path d="M346.875,317.0125 L346.875,317.3045 L357.1759,316.4371 L367.4769,317.281 L377.7778,317.5676 L388.0787,316.0217 L398.3796,316.9046 L408.6806,316.4202 L418.9815,316.4799 L429.2824,316.9179 L439.5833,316.0523 L449.8843,317.7815 L460.1852,316.1371 L470.4861,316.7379 L480.787,317.6125 L491.088,316.8934 L501.3889,317.1073 L511.6898,316.9682 L521.9907,317.2605 L532.2917,317.0125 " fill="none" style="stroke:#333333;stroke-width:3.125;stroke-dasharray:2.0,2.0;"/><text fill="#2E2E2E" font-family="Comic Sans MS, 楷体" font-size="12.5" lengthAdjust="spacing" textLength="63.5417" x="364.5833" y="306.9743">Work Done</text><path d="M523.9583,307.6375 L524.0271,307.7063 L527.5727,311.2519 L531.5216,315.2008 L535.3392,319.0184 L538.7248,322.404 L542.7083,326.3875 " fill="none" style="stroke:#555555;stroke-width:2.0833333333333335;"/><path d="M523.9583,326.3875 L524.0271,326.4563 L527.5727,322.5019 L531.5216,318.9508 L535.3392,315.2684 L538.7248,311.154 L542.7083,307.6375 " fill="none" style="stroke:#555555;stroke-width:2.0833333333333335;"/><polygon fill="#333333" points="162.5,354.9174,162.5271,354.9852,160.3632,355.6172,158.3583,356.6464,156.3015,357.5463,154.0747,358.0207,152.0833,359.0841,152.0733,359.059,154.1117,359.7799,156.2005,360.6271,158.3245,361.5621,160.3275,362.1945,162.5,363.2507,162.6359,363.3867,161.5119,362.2627,160.7848,361.5355,160.1061,360.8568,159.1456,359.8963,158.3333,359.0841,158.3501,359.1008,159.1588,358.2429,160.0438,357.4612,160.892,356.6428,161.8105,355.8945,162.5,354.9174" style="stroke:#333333;stroke-width:1.0416666666666667;"/><path d="M156.25,359.0841 L156.25,359.376 L166.7892,358.5086 L177.3284,359.3525 L187.8676,359.6392 L198.4069,358.0932 L208.9461,358.9761 L219.4853,358.4917 L230.0245,358.5514 L240.5637,358.9894 L251.1029,358.1238 L261.6422,359.853 L272.1814,358.2087 L282.7206,358.8094 L293.2598,359.684 L303.799,358.9649 L314.3382,359.1788 L324.8775,359.0397 L335.4167,359.0841 " fill="none" style="stroke:#333333;stroke-width:3.125;stroke-dasharray:2.0,2.0;"/><text fill="#2E2E2E" font-family="Comic Sans MS, 楷体" font-size="12.5" lengthAdjust="spacing" textLength="97.9167" x="173.9583" y="349.0458">Request Created</text><polygon fill="#333333" points="39.0625,396.9889,39.0896,397.0567,36.9257,397.6887,34.9208,398.7179,32.864,399.6178,30.6372,400.0923,28.6458,401.1556,28.6358,401.1305,30.6742,401.8514,32.763,402.6986,34.887,403.6336,36.89,404.266,39.0625,405.3223,39.1984,405.4582,38.0744,404.3342,37.3473,403.607,36.6686,402.9283,35.7081,401.9679,34.8958,401.1556,34.9126,401.1724,35.7213,400.3144,36.6063,399.5328,37.4545,398.7143,38.373,397.9661,39.0625,396.9889" style="stroke:#333333;stroke-width:1.0416666666666667;"/><path d="M32.8125,401.1556 L32.8125,401.4475 L42.9924,400.5802 L53.1723,401.4241 L63.3523,401.7107 L73.5322,400.1648 L83.7121,401.0477 L93.892,400.5632 L104.072,400.623 L114.2519,401.0609 L124.4318,400.1954 L134.6117,401.9245 L144.7917,401.1556 " fill="none" style="stroke:#333333;stroke-width:3.125;stroke-dasharray:2.0,2.0;"/><text fill="#2E2E2E" font-family="Comic Sans MS, 楷体" font-size="12.5" lengthAdjust="spacing" textLength="25" x="50.5208" y="391.1174">收工</text><!--MD5=[13b97fd809f82ba8ebbc07558404c2e9]
@startuml sequence-sample

!include ../C4/Code.puml

Sketch()

actor User
participant "第一个家伙" as A
participant "Second Class" as B
participant "最后一个家伙" as C

User -> A: 干活
activate A
note over A: 这是一条注释说明
A -> B: Create Request
activate B

B -> C: Do Work
activate C
C - -> B: Work Done
destroy C
'deactivate C

B - -> A: Request Created
deactivate B

A - -> User: 收工
deactivate A

@enduml

@startuml sequence-sample












skinparam backgroundColor transparent
skinparam useBetaStyle false









skinparam defaultFontName        "Verdana"
skinparam defaultFontSize        12
skinparam dpi                    100
skinparam shadowing              false
skinparam roundcorner            20
skinparam ParticipantPadding     30
skinparam BoxPadding             40
skinparam Padding                8
skinparam ArrowColor             #959595
skinparam stereotype {
    CBackgroundColor #f5f5f5
    CBorderColor #c2c2c2
    ABackgroundColor #c4ca33
    ABorderColor #919700
    IBackgroundColor #d95555
    IBorderColor #a62222
    EBackgroundColor #ee9033
    EBorderColor #bb5d00
    NBackgroundColor #3786be
    NBorderColor #04538b
}
skinparam title {
	FontColor	                 #009fdb
	BorderColor	                 #c2c2c2
	FontSize	    	         20
	BorderRoundCorner            8
	BorderThickness 	         1
	BackgroundColor              #f5f5f5-#f2f2f2
}


skinparam legend {
	BackgroundColor #f2f2f2
	BorderColor #c2c2c2
	FontColor #5a5a5a
}

skinparam swimlane {
	BorderColor #0568ae
	BorderThickness 2
	TitleBackgroundColor  #f5f5f5-#f2f2f2
	TitleFontColor #009fdb
}


skinparam activity {
	FontColor #fff
	BorderColor #009fdb
	BackgroundColor #33b2e2-#009fdb
	BarColor #b5bd00
	StartColor #0568ae
	EndColor #0568ae
	DiamondBackgroundColor #f5f5f5-#c2c2c2
  	DiamondBorderColor #c2c2c2
	DiamondFontColor #5a5a5a
}


skinparam participant {
	
	FontColor #fff
	BorderColor #33b2e2
	BackgroundColor #33b2e2-#009fdb

	ParticipantBorderThickness 2
}


skinparam actor {
	
	FontColor #fff
	BorderColor #33b2e2
	BackgroundColor #33b2e2-#009fdb

	FontColor #009fdb
}


skinparam arrow {
	Thickness 3
	Color #009fdb
	FontColor #5a5a5a
}


skinparam sequence {
	BorderColor #009fdb
	TitleFontColor #009fdb
	BackgroundColor transparent
	StartColor #009fdb
	EndColor #009fdb
	BoxBackgroundColor #d2d2d2
	BoxBorderColor #959595
	BoxFontColor #5a5a5a
	LifeLineBorderColor #c2c2c2
	LifeLineBorderThickness 2
	LifeLineBackgroundColor #f5f5f5
	GroupBorderColor #959595
	GroupFontColor #5a5a5a
	GroupHeaderFontColor #0568ae
	DividerBackgroundColor #fff-#d2d2d2
    DividerBorderColor #959595
    DividerBorderThickness 2
    DividerFontColor #5a5a5a
	ReferenceBackgroundColor transparent
	ReferenceBorderColor #959595
	ReferenceFontColor #5a5a5a
	ReferenceHeaderFontColor #0568ae
}


skinparam partition {
	BorderColor #009fdb
	FontColor #009fdb
	BackgroundColor transparent
}


skinparam collections {
	
	FontColor #fff
	BorderColor #33b2e2
	BackgroundColor #33b2e2-#009fdb

}


skinparam control {
	
	FontColor #fff
	BorderColor #33b2e2
	BackgroundColor #33b2e2-#009fdb

	FontColor #009fdb
}


skinparam entity {
	
	FontColor #fff
	BorderColor #33b2e2
	BackgroundColor #33b2e2-#009fdb

	FontColor #009fdb
}


skinparam boundary {
	
	FontColor #fff
	BorderColor #33b2e2
	BackgroundColor #33b2e2-#009fdb

	FontColor #009fdb
}


skinparam agent {
	BackgroundColor #orange
	BorderColor #999999
	FontColor #333333
}


skinparam note {
	BorderThickness 1
	BackgroundColor #3786be-#0568ae
	BorderColor #0568ae
	FontColor #fff
}


skinparam artifact {
	BackgroundColor #fff-#d2d2d2
	BorderColor #c2c2c2
	FontColor #5a5a5a
}


skinparam component {
	
	FontColor #fff
	BorderColor #33b2e2
	BackgroundColor #33b2e2-#009fdb

}


skinparam interface {
	BackgroundColor  #d95555
	BorderColor  #cf2a2a
	FontColor #5a5a5a
}


skinparam storage {
	BackgroundColor #ee9033-#ea7400
  	BorderColor #ea7400
	FontColor #fff
}


skinparam node {
	BackgroundColor #f5f5f5-#f2f2f2
	BorderColor #c2c2c2
	FontColor #009fdb
}


skinparam cloud {
	BackgroundColor #F2FCFE-#eeeeee
	BorderColor #F2FCFE
	FontColor #009fdb
}


skinparam database {
	
	FontColor #fff
	BorderColor #33b2e2
	BackgroundColor #33b2e2-#009fdb

	BorderColor #007faf
}


skinparam class {
	
	FontColor #fff
	BorderColor #33b2e2
	BackgroundColor #33b2e2-#009fdb

	HeaderBackgroundColor #33b2e2-#009fdb
	StereotypeFontColor #5a5a5a
	BorderThickness 1
	AttributeFontColor #d2d2d2
	AttributeFontSize 11
}


skinparam object {
	
	FontColor #fff
	BorderColor #33b2e2
	BackgroundColor #33b2e2-#009fdb

	StereotypeFontColor #5a5a5a
	BorderThickness 1
	AttributeFontColor #d2d2d2
	AttributeFontSize 11
}


skinparam usecase {
	
	FontColor #fff
	BorderColor #33b2e2
	BackgroundColor #33b2e2-#009fdb

	BorderThickness 2
	StereotypeFontColor #009fdb
}


skinparam rectangle {
		FontColor #5a5a5a
	BorderColor #c2c2c2
	BackgroundColor #fff-#fefefe
	BorderThickness 2
	StereotypeFontColor #009fdb
}


skinparam package {
	FontColor #009fdb
	BorderColor #33b2e2
	BackgroundColor transparent
	BorderThickness 2
}


skinparam folder {
	BackgroundColor #fff-#f5f5f5
  	BorderColor #ea7400
	FontColor #ea7400
	BorderThickness 2
}


skinparam frame {
	BackgroundColor #fff-#f5f5f5
  	BorderColor #0568ae
	FontColor #0568ae
	BorderThickness 2
}


skinparam state {
	
	FontColor #fff
	BorderColor #33b2e2
	BackgroundColor #33b2e2-#009fdb

	BorderColor #007faf
	StartColor #0568ae
	EndColor #0568ae
	AttributeFontColor #d2d2d2
	AttributeFontSize 11
}


skinparam queue {
	
	FontColor #fff
	BorderColor #33b2e2
	BackgroundColor #33b2e2-#009fdb

}


skinparam card {
	BackgroundColor #3786be-#0568ae
	BorderColor #0568ae
	FontColor #fff
}


skinparam file {
	BackgroundColor #f5f5f5-#f2f2f2
	BorderColor #0568ae
	FontColor #5a5a5a

}


skinparam defaultFontName "Verdana, 宋体"
skinparam backgroundColor white
skinparam roundCorner 2
skinparam title {
	FontColor           black
	BorderThickness     0
	BackgroundColor     transparent
}


skinparam defaultTextAlignment center

skinparam wrapWidth 200
skinparam maxMessageSize 150

skinparam LegendBorderColor transparent
skinparam LegendBackgroundColor transparent
skinparam LegendFontColor #FFFFFF

skinparam rectangle {
    StereotypeFontSize 12
    shadowing false
}

skinparam database {
    StereotypeFontSize 12
    shadowing false
}

skinparam queue {
    StereotypeFontSize 12
    shadowing false
}

skinparam Arrow {
    Color #666666
    FontColor #666666
    FontSize 12
}

skinparam package {
    StereotypeFontSize 6
    StereotypeFontColor #FFFFFF
    FontStyle plain
    BackgroundColor #FFFFFF
}

skinparam rectangle<<boundary>> {
    Shadowing false
    StereotypeFontSize 6
    StereotypeFontColor #FFFFFF
    FontColor #444444
    BorderColor #444444
    BackgroundColor #FFFFFF
    BorderStyle dashed
}






























































skinparam backgroundColor transparent
skinparam useBetaStyle false
skinparam handwritten true
skinparam shadowing false







skinparam defaultFontName       "Segoe Print"
skinparam defaultFontSize       12
skinparam dpi                   100
skinparam shadowing             false
skinparam roundcorner           8
skinparam ParticipantPadding    40
skinparam BoxPadding            40
skinparam Padding               5
skinparam ArrowColor            #555555
skinparam stereotype {
    CBackgroundColor transparent
    CBorderColor #4d4d4d
    ABackgroundColor transparent
    ABorderColor #24963e
    IBackgroundColor transparent
    IBorderColor #c6303e
    EBackgroundColor transparent
    EBorderColor #e6ae06
    NBackgroundColor transparent
    NBorderColor #1592a6
}
skinparam title {
	FontColor	                 #2e2e2e
	BorderColor	                 #4d4d4d
	FontSize	    	         20
	BorderRoundCorner            8
	BorderThickness 	         1
	BackgroundColor              transparent
}

skinparam legend {
	BackgroundColor transparent
	BorderColor #4d4d4d
	FontColor #2e2e2e
}

skinparam swimlane {
	BorderColor #17a2b8
	BorderThickness 2
	TitleBackgroundColor  transparent
	TitleFontColor #2e2e2e
}


skinparam activity {
		FontColor #2e2e2e
	BorderColor #333333
	BackgroundColor transparent
	BarColor #28a745
	StartColor #17a2b8
	EndColor #17a2b8
	DiamondBackgroundColor transparent
  	DiamondBorderColor #4d4d4d
  	DiamondFontColor #2e2e2e
}


skinparam participant {
		FontColor #2e2e2e
	BorderColor #333333
	BackgroundColor transparent
	ParticipantBorderThickness 2
}


skinparam actor {
		FontColor #2e2e2e
	BorderColor #333333
	BackgroundColor transparent
}


skinparam arrow {
	Thickness 3
	Color #333333
	FontColor #2e2e2e
}


skinparam sequence {
	BorderColor #333333
	TitleFontColor #2e2e2e
	BackgroundColor transparent
	StartColor #333333
	EndColor #333333
	BoxBackgroundColor transparent
	BoxBorderColor #555555
	BoxFontColor #555555
	LifeLineBorderColor #555555
	LifeLineBorderThickness 2
	LifeLineBackgroundColor #4d4d4d
	GroupBorderColor #555555
	GroupFontColor #555555
	GroupHeaderFontColor #17a2b8
	GroupBackgroundColor #555555
	GroupHeaderBackgroundColor transparent
	DividerBackgroundColor #555555
    DividerBorderColor #555555
    DividerBorderThickness 2
    DividerFontColor #ffffff
	ReferenceBackgroundColor transparent
	ReferenceBorderColor #555555
	ReferenceFontColor #555555
	ReferenceHeaderFontColor #17a2b8
	ReferenceHeaderBackgroundColor #555555
}


skinparam partition {
	BorderColor #333333
	FontColor #333333
	BackgroundColor transparent
}


skinparam collections {
		FontColor #2e2e2e
	BorderColor #333333
	BackgroundColor transparent
}


skinparam control {
		FontColor #2e2e2e
	BorderColor #333333
	BackgroundColor transparent
}


skinparam entity {
		FontColor #2e2e2e
	BorderColor #333333
	BackgroundColor transparent
}


skinparam boundary {
		FontColor #2e2e2e
	BorderColor #333333
	BackgroundColor transparent
}


skinparam agent {
	BackgroundColor #ffc107
	BorderColor #ffc720
	FontColor #555555
}


skinparam note {
	BorderThickness 1
	BackgroundColor #17a2b8
	BorderColor #1592a6
	FontColor #ffffff
}


skinparam artifact {
	BackgroundColor transparent
	BorderColor #4d4d4d
	FontColor #4d4d4d
}


skinparam component {
		FontColor #2e2e2e
	BorderColor #333333
	BackgroundColor transparent
}


skinparam interface {
	BackgroundColor  transparent
	BorderColor  #dc3545
	FontColor #555555
}


skinparam storage {
	BackgroundColor transparent
  	BorderColor #e6ae06
	FontColor #e6ae06
}


skinparam node {
	BackgroundColor  transparent
	BorderColor #ffffff
	FontColor #ffffff
}


skinparam cloud {
	BackgroundColor transparent
	BorderColor #F2FCFE
	FontColor #2e2e2e
}


skinparam database {
		FontColor #2e2e2e
	BorderColor #333333
	BackgroundColor transparent
}


skinparam class {
		FontColor #2e2e2e
	BorderColor #333333
	BackgroundColor transparent
	HeaderBackgroundColor transparent
	StereotypeFontColor #555555
	BorderThickness 1
	AttributeFontColor #555555
	AttributeFontSize 11
}


skinparam object {
		FontColor #2e2e2e
	BorderColor #333333
	BackgroundColor transparent
	StereotypeFontColor #2e2e2e
	BorderThickness 1
	AttributeFontColor #2e2e2e
	AttributeFontSize 11
}


skinparam usecase {
		FontColor #2e2e2e
	BorderColor #333333
	BackgroundColor transparent
	BorderThickness 2
	StereotypeFontColor #333333
}


skinparam rectangle {
		FontColor #2e2e2e
	BorderColor #333333
	BackgroundColor transparent
	BorderThickness 2
	StereotypeFontColor #333333
}


skinparam package {
	BackgroundColor transparent
  	BorderColor #333333
	FontColor #333333
	BorderThickness 2
}


skinparam folder {
	BackgroundColor transparent
  	BorderColor #ffc107
	FontColor #ffc107
	BorderThickness 2
}


skinparam frame {
	BackgroundColor transparent
  	BorderColor #17a2b8
	FontColor #17a2b8
	BorderThickness 2
}


skinparam state {
		FontColor #2e2e2e
	BorderColor #333333
	BackgroundColor transparent
	StartColor #17a2b8
	EndColor #17a2b8
	AttributeFontColor #ffffff
	AttributeFontSize 11
}


skinparam queue {
		FontColor #2e2e2e
	BorderColor #333333
	BackgroundColor transparent
}


skinparam card {
	BackgroundColor transparent
	BorderColor #1592a6
	FontColor #1592a6
}


skinparam file {
	BackgroundColor transparent
	BorderColor #ffffff
	FontColor #ffffff
}


skinparam defaultFontName "Comic Sans MS, 楷体"
skinparam backgroundColor white
skinparam roundCorner 2
skinparam title {
	BorderThickness 0
	BackgroundColor transparent
}

actor User
participant "第一个家伙" as A
participant "Second Class" as B
participant "最后一个家伙" as C

User -> A: 干活
activate A
note over A: 这是一条注释说明
A -> B: Create Request
activate B

B -> C: Do Work
activate C
C - -> B: Work Done
destroy C

B - -> A: Request Created
deactivate B

A - -> User: 收工
deactivate A

@enduml

PlantUML version 1.2021.7(Sun May 23 20:40:07 CST 2021)
(GPL source distribution)
Java Runtime: OpenJDK Runtime Environment
JVM: OpenJDK 64-Bit Server VM
Default Encoding: GBK
Language: zh
Country: CN
--></g></svg>